<svg width="980" height="530" viewBox="0 0 980 530" fill="none" xmlns="http://www.w3.org/2000/svg">
<g clip-path="url(#clip0_837_655)">
<rect width="980" height="530" fill="white"/>
<rect width="980" height="530" fill="url(#paint0_linear_837_655)"/>
<path fill-rule="evenodd" clip-rule="evenodd" d="M965.295 446.573L1095.21 416.787C1097.21 416.382 1099.11 415.564 1100.78 414.386C1102.45 413.208 1103.85 411.696 1104.9 409.945C1105.95 408.195 1106.63 406.244 1106.89 404.218C1107.14 402.192 1106.97 400.134 1106.39 398.177L1051.14 158.548C1050.14 154.594 1047.62 151.196 1044.12 149.102C1040.62 147.006 1036.43 146.384 1032.47 147.372L902.61 177.158C898.679 178.167 895.308 180.691 893.233 184.178C891.158 187.666 890.549 191.833 891.539 195.768L946.629 435.397C947.626 439.352 950.152 442.749 953.651 444.844C957.15 446.939 961.338 447.561 965.295 446.573Z" fill="#020A47"/>
<path fill-rule="evenodd" clip-rule="evenodd" d="M920.551 594.667L1078.06 448.836C1084 442.847 1082.5 439.157 1074.32 442.098L966.066 466.697C961.59 467.803 957.464 470.02 954.071 473.142C950.677 476.263 948.126 480.19 946.651 484.559L913.811 590.229C911.565 598.412 914.56 600.656 920.551 594.667Z" fill="#020A47"/>
<path fill-rule="evenodd" clip-rule="evenodd" d="M633.145 547.059L869.015 619.947C873.044 620.7 877.21 619.992 880.767 617.956C884.323 615.915 887.04 612.68 888.43 608.826L927.956 482.299C928.528 480.326 928.705 478.259 928.476 476.217C928.248 474.175 927.619 472.199 926.626 470.4C925.632 468.602 924.293 467.017 922.686 465.737C921.078 464.457 919.234 463.507 917.258 462.941L681.389 390.747C677.395 389.606 673.113 390.089 669.476 392.093C665.838 394.097 663.141 397.458 661.973 401.443L622.715 527.701C621.549 531.651 621.991 535.901 623.944 539.527C625.898 543.152 629.204 545.86 633.145 547.059Z" fill="#020A47"/>
<path fill-rule="evenodd" clip-rule="evenodd" d="M556.996 288.061L604.812 497.422C606.309 505.604 610.16 505.604 612.246 497.422L645.086 391.752C646.205 387.25 646.251 382.547 645.22 378.024C644.189 373.501 642.11 369.282 639.149 365.709L563.735 284.318C558.494 278.168 554.589 279.879 556.996 288.061Z" fill="#020A47"/>
<path fill-rule="evenodd" clip-rule="evenodd" d="M741.423 64.287L560.75 231.508C557.851 234.267 556.149 238.052 556.009 242.051C555.869 246.05 557.302 249.944 560.001 252.899L650.337 350.601C653.121 353.554 656.958 355.289 661.014 355.429C665.07 355.569 669.018 354.103 671.999 351.35L852.619 183.861C855.542 181.116 857.262 177.327 857.402 173.32C857.543 169.312 856.092 165.412 853.368 162.47L763.191 64.8218C761.804 63.3456 760.137 62.1597 758.288 61.3327C756.439 60.5058 754.444 60.0544 752.419 60.0046C750.394 59.9549 748.379 60.3078 746.491 61.0429C744.604 61.7781 742.881 62.8807 741.423 64.287Z" fill="#020A47"/>
<path fill-rule="evenodd" clip-rule="evenodd" d="M916.059 442.846C924.295 445.092 929.483 440.654 927.29 432.151L875.035 205.945C872.789 197.763 866.049 195.517 860.113 201.452L689.923 359.529C683.932 365.465 685.43 372.15 693.613 374.396L916.059 442.846Z" fill="#020A47"/>
<path fill-rule="evenodd" clip-rule="evenodd" d="M1004.89 127.353L798.866 64.3046C790.683 62.0586 789.185 65.0533 795.871 71.7379L871.285 152.862C874.668 156.024 878.76 158.33 883.217 159.585C887.674 160.842 892.368 161.011 896.904 160.081L1005.16 135.535C1013.13 133.289 1013.13 129.546 1004.89 127.353Z" fill="#020A47"/>
</g>
<defs>
<linearGradient id="paint0_linear_837_655" x1="0" y1="256.011" x2="981.369" y2="256.011" gradientUnits="userSpaceOnUse">
<stop stop-color="#020A47"/>
<stop offset="1" stop-color="#5EE4E4"/>
</linearGradient>
<clipPath id="clip0_837_655">
<rect width="980" height="530" fill="white"/>
</clipPath>
</defs>
</svg>
